<?xml version="1.0" standalone="no"?><!DOCTYPE svg PUBLIC "-//W3C//DTD SVG 1.1//EN" "http://www.w3.org/Graphics/SVG/1.1/DTD/svg11.dtd"><svg t="1781955270167" class="icon" viewBox="0 0 1024 1024" version="1.1" xmlns="http://www.w3.org/2000/svg" p-id="870" xmlns:xlink="http://www.w3.org/1999/xlink" width="200" height="200"><path d="M213.333333 42.666667a42.666667 42.666667 0 0 0-30.165333 72.832L409.002667 341.333333H213.333333a42.666667 42.666667 0 0 0-42.666666 42.666667v298.666667a42.666667 42.666667 0 0 0 12.501333 12.501333 42.666667 42.666667 0 0 0 0 17.664l298.666667 298.666667A42.666667 42.666667 0 0 0 554.666667 981.333333v-256h256a42.666667 42.666667 0 0 0 30.165333-72.832L614.997333 426.666667H810.666667a42.666667 42.666667 0 0 0 42.666666-42.666667V85.333333a42.666667 42.666667 0 0 0-42.666666-42.666666z m102.997334 85.333333H768v213.333333h-238.336zM256 426.666667h238.336l213.333333 213.333333H256z m60.330667 298.666666H469.333333v153.002667z" fill="#e5e7eb" p-id="871"></path></svg>